<?xml version="1.0" encoding="UTF-8"?>
<svg xmlns="http://www.w3.org/2000/svg" xmlns:xlink="http://www.w3.org/1999/xlink" width="2835" height="2835" viewBox="0 0 2835 2835">
<path fill-rule="evenodd" fill="rgb(100%, 100%, 100%)" fill-opacity="1" d="M 0 0.351562 L 2834.648438 0.351562 L 2834.648438 2835 L 0 2835 L 0 0.351562 "/>
<path fill-rule="evenodd" fill="rgb(21.946716%, 44.309998%, 75.78125%)" fill-opacity="1" d="M 1428.511719 515.761719 L 1815.75 736.269531 L 2203.410156 956.78125 C 2210.578125 960.839844 2215.121094 968.011719 2215.121094 976.609375 L 2215.121094 1859.113281 C 2215.121094 1867.234375 2210.628906 1874.410156 2203.410156 1878.941406 L 1428.511719 2319.960938 C 1421.339844 2324.019531 1413.210938 2324.019531 1406.039062 2319.960938 L 1018.429688 2099.453125 L 630.765625 1878.941406 C 623.585938 1874.457031 619.527344 1867.234375 619.527344 1859.113281 L 619.527344 976.558594 C 619.527344 968.011719 623.585938 960.789062 630.765625 956.730469 L 1018.429688 736.21875 L 1406.039062 515.671875 C 1413.210938 511.230469 1421.339844 511.230469 1428.511719 515.761719 Z M 1417.269531 2232.039062 L 1417.269531 1778.890625 L 1838.21875 1778.890625 L 1838.21875 1541.339844 L 1417.269531 1366.679688 L 1417.269531 1344.628906 L 1418.691406 1344.628906 L 1419.160156 1345.101562 L 1419.628906 1345.101562 C 1420.148438 1345.101562 1420.53125 1345.101562 1420.53125 1345.101562 L 1421 1345.101562 L 1421 1345.570312 L 1422.421875 1345.570312 L 1422.421875 1346.039062 L 1423.359375 1346.039062 L 1423.839844 1346.519531 L 1424.78125 1346.519531 L 1424.78125 1346.988281 L 1425.300781 1346.988281 L 1425.769531 1347.460938 L 1860.648438 1527.449219 L 2108.308594 1343.820312 L 1417.269531 874.808594 L 1417.269531 603.449219 L 1058.890625 807.328125 L 701.402344 1010.75 L 701.402344 1824.308594 L 1064.738281 2031.316406 L 1417.269531 2232.039062 "/>
<path fill-rule="evenodd" fill="rgb(0%, 67.771912%, 93.75%)" fill-opacity="1" d="M 975.597656 1529.148438 L 828.371094 1419.75 L 828.371094 1578.121094 C 838.757812 1582.609375 845.9375 1592.949219 845.9375 1604.648438 L 845.9375 1740.601562 C 845.9375 1756.738281 832.859375 1769.820312 816.660156 1769.820312 C 800.464844 1769.820312 787.386719 1756.738281 787.386719 1740.601562 L 787.386719 1604.648438 C 787.386719 1592.46875 795.082031 1581.710938 805.894531 1577.648438 L 805.894531 1403.03125 L 726.664062 1343.589844 L 1414.578125 873.058594 L 1415.058594 873.53125 L 1415.058594 1344.671875 C 1411.460938 1344.671875 1407.398438 1345.570312 1404.191406 1347.410156 L 975.597656 1529.148438 "/>
<path fill-rule="evenodd" fill="rgb(0%, 67.771912%, 93.75%)" fill-opacity="1" d="M 991.789062 1541.339844 L 1414.578125 1365.828125 L 1415.058594 1768.121094 L 1415.058594 1778.980469 L 991.367188 1778.980469 L 991.789062 1541.339844 "/>
</svg>
